<svg 
 xmlns="http://www.w3.org/2000/svg"
 xmlns:xlink="http://www.w3.org/1999/xlink"
 width="20px" height="20px">
<path fill-rule="evenodd"  fill="rgb(255, 255, 255)"
 d="M11.082,19.000 L11.082,17.000 C14.899,17.000 18.004,13.860 18.004,10.000 C18.004,6.140 14.899,3.000 11.082,3.000 L11.082,1.000 C15.989,1.000 19.982,5.038 19.982,10.000 C19.982,14.962 15.989,19.000 11.082,19.000 ZM7.126,20.000 L5.674,20.000 C3.373,20.000 1.342,18.351 0.846,16.079 C-0.040,12.027 -0.032,7.841 0.846,3.883 C1.346,1.633 3.373,0.000 5.666,0.000 L7.126,0.000 C8.217,0.000 9.104,0.897 9.104,2.000 L9.104,5.000 C9.104,6.103 8.217,7.000 7.126,7.000 L6.137,7.000 L6.137,13.000 L7.126,13.000 C8.217,13.000 9.104,13.897 9.104,15.000 L9.104,18.000 C9.104,19.103 8.217,20.000 7.126,20.000 ZM16.027,10.000 C16.027,12.757 13.808,15.000 11.082,15.000 L11.082,13.000 C12.718,13.000 14.049,11.654 14.049,10.000 C14.049,8.346 12.718,7.000 11.082,7.000 L11.082,5.000 C13.808,5.000 16.027,7.243 16.027,10.000 Z"/>
</svg>