<svg 
 xmlns="http://www.w3.org/2000/svg"
 xmlns:xlink="http://www.w3.org/1999/xlink"
 width="40px" height="40px">
<path fill-rule="evenodd"  fill="rgb(255, 115, 115)"
 d="M31.999,26.002 C31.999,24.898 32.894,24.003 33.999,24.003 L39.999,24.003 L39.999,28.001 L33.999,28.001 C32.894,28.001 31.999,27.106 31.999,26.002 ZM40.000,40.001 L-0.000,40.001 L-0.000,12.013 L40.000,12.013 L40.000,20.010 L34.000,20.010 C30.686,20.010 28.000,22.695 28.000,26.007 C28.000,29.319 30.686,32.005 34.000,32.005 L40.000,32.005 L40.000,40.001 ZM12.440,0.739 C12.820,0.299 13.360,0.019 13.940,0.019 C14.540,-0.001 15.100,0.239 15.480,0.679 L20.100,5.796 L23.580,2.558 C24.360,1.818 25.580,1.838 26.340,2.578 L31.980,8.015 L6.500,8.015 L12.440,0.739 Z"/>
</svg>